<svg width="180" height="112" viewBox="0 0 180 112" fill="none" xmlns="http://www.w3.org/2000/svg">
    <rect width="180" height="112" fill="white" />
    <path
        d="M45.0001 88.1197L42.8691 87.7436L48.8859 65.4316L45.0001 88.1197ZM45.0001 88.1197L47.131 88.4957C52.0613 88.7464 63.2758 89.7492 68.6909 91.7548C74.1059 93.7603 76.4625 95.7659 76.9638 96.518L76.7132 98.2729C74.7076 96.3509 70.1449 92.3564 67.9388 91.7548M67.1867 94.2617C68.3566 94.6795 71.5488 96.518 74.9583 100.529"
        stroke="#6B6B6B" stroke-width="0.501393" />
    <path
        d="M65.6816 96.2673C67.3529 97.2701 70.6955 99.4261 70.6955 100.028C70.7791 100.529 70.5451 101.382 68.9406 100.78C67.1858 100.111 63.1245 98.8746 60.9183 99.2757C55.7373 99.9442 44.1718 101.432 39.3585 102.033C37.1857 102.284 32.3891 101.582 30.5841 96.7687C29.5813 94.8467 27.8766 89.1977 29.0799 81.9777C30.1664 76.0445 32.6401 63.727 33.8435 61.9219C35.4312 58.7465 39.8101 52.0445 44.6234 50.6406C47.0468 49.9721 52.1945 48.5348 53.3978 48.1336C54.6513 47.7158 57.4089 45.1253 59.6652 38.6072"
        stroke="#6B6B6B" stroke-width="0.501393" />
    <path
        d="M13.4623 109.717L13.7892 108.301L167.967 108.05L167.47 110.371C167.322 111.064 166.709 111.56 165.999 111.56H14.9279C13.9606 111.56 13.2448 110.66 13.4623 109.717Z"
        fill="#333333" />
    <path
        d="M77.7156 66.4346C78.8559 68.3078 80.4407 73.5785 77.9208 79.9722M79.2198 92.7577C76.0109 88.9471 76.88 82.9805 77.7156 80.4736C77.7869 80.3057 77.8552 80.1385 77.9208 79.9722M77.9208 79.9722C77.9361 81.8106 78.8191 86.1393 82.2286 88.7465M60.418 41.6156C62.0057 42.702 66.1338 44.8747 69.9444 44.8747C72.0336 44.8747 76.6631 42.0669 78.4681 30.8357C78.6352 30 78.9695 28.078 78.9695 27.0752V26.5738V25.571"
        stroke="#727272" stroke-width="0.501393" />
    <path
        d="M69.6937 44.8748C69.3594 46.0447 68.6909 49.1366 66.184 52.3956C65.1812 53.482 61.9221 55.0029 56.9082 52.3956C55.989 51.8943 54.0001 50.3399 53.3984 48.1338"
        stroke="#6B6B6B" stroke-width="0.501393" />
    <path
        d="M67.9395 49.1365C70.7807 49.7214 77.4158 51.5933 81.2264 54.4011C83.7333 56.8245 89.0481 63.727 90.2514 71.9498"
        stroke="#6B6B6B" stroke-width="0.501393" />
    <path
        d="M132.377 71.4485H87.3317C87.1262 71.4485 86.9414 71.574 86.8656 71.7651L75.4591 100.529H66.6848C63.4759 100.93 58.3282 100.362 56.1555 100.028L50.3895 100.529L49.3867 102.535H50.1388H120.584L132.842 72.1374C132.974 71.8079 132.732 71.4485 132.377 71.4485Z"
        fill="#333333" />
    <circle cx="105.292" cy="87.7437" r="3.00836" fill="white" />
    <rect x="8.27218" y="102.535" width="164.457" height="5.51532" rx="1.75487" stroke="#5E5E5E"
        stroke-width="0.501393" />
    <path
        d="M67.6875 49.6378C64.4786 47.4317 64.0106 44.7074 64.1777 43.6211C65.7821 44.4233 68.5232 44.791 69.6931 44.8746C69.4926 46.2785 68.2725 48.635 67.6875 49.6378Z"
        fill="#333333" />
    <path
        d="M80.7244 27.0753L78.9696 26.5739L78.4678 31.3371L77.2143 36.351C77.4148 34.1449 77.465 31.0864 77.465 29.8329C75.2588 28.429 72.7017 25.4039 71.6989 24.0669C69.0917 27.5347 64.9301 28.0188 63.1753 27.8273C63.1753 28.5276 62.4111 31.3167 61.8834 33.1259C61.8374 33.2836 61.5967 33.2624 61.5685 33.1006C61.0286 29.997 59.4404 29.7725 58.6627 30.0836C57.0583 31.0864 56.6572 32.8413 56.6572 33.5934C56.4836 36.5391 58.6684 37.9503 60.0744 38.4414C60.1818 38.4789 60.1699 38.6836 60.0583 38.7055C58.6667 38.9787 57.3775 39.5642 57.1586 40.1115C56.3563 42.117 54.9861 44.624 54.4013 45.6268C52.3958 48.4346 46.8802 50.1393 44.373 50.6407C45.7769 48.6351 48.8856 40.6128 49.1367 34.3454C48.9362 29.7326 49.2203 24.4012 49.3874 22.312C50.9919 13.287 52.0896 11.0205 57.4097 11.2814C60.7185 11.4436 65.0137 15.7103 64.6795 16.2953C56.8577 18.1003 54.6525 26.8245 54.4013 27.3259C54.1502 27.8273 54.9023 28.3287 55.4041 27.3259C55.9059 26.3231 56.5736 23.649 56.9079 23.0641C62.724 15.2424 68.9413 15.4965 74.7077 19.5544C80.1228 23.365 80.9751 26.156 80.7244 27.0753Z"
        fill="#333333" />
    <path
        d="M154.093 88.7759L153.883 87.6966H160.359M154.093 88.7759L156.761 102.447H167.434L170.213 88.7759M154.093 88.7759H170.213M170.213 88.7759L170.432 87.6966H160.359M160.359 87.6966C160.161 87.0922 159.84 86.2673 159.396 85.2981M151.964 74.6248C154.392 76.9554 156.307 79.6504 157.711 82.0601M159.396 85.2981C157.838 84.8984 154.051 83.2594 151.364 79.9015C150.405 78.4224 148.846 74.8647 151.364 72.9459C152.044 72.5061 153.859 72.2263 155.681 74.6248C156.441 75.6242 158.2 78.2226 159.159 80.6211C159.317 81.1007 159.585 82.7077 159.396 85.2981ZM159.396 85.2981C158.955 84.336 158.394 83.2318 157.711 82.0601M152.683 80.1414C154.01 80.1414 156.874 80.5251 157.711 82.0601M157.711 82.0601C157.711 79.9534 156.838 77.8245 156.401 77.0233"
        stroke="#5E5E5E" stroke-width="0.4" />
    <path
        d="M162.396 87.6966C162.396 86.5373 162.708 83.6191 163.956 81.2206M163.956 81.2206C165.475 77.3031 168.848 68.9883 170.192 67.0695M163.956 81.2206C165.594 80.4611 169.328 78.2225 171.151 75.3443C172.67 72.706 174.677 66.9256 170.551 64.9109C169.632 64.5511 167.289 64.8629 165.275 68.9883C164.715 70.1476 163.548 73.4255 163.356 77.2631C163.316 78.3424 163.38 80.645 163.956 81.2206Z"
        stroke="#5E5E5E" stroke-width="0.4" stroke-linecap="round" />
</svg>