<svg width="188" height="146" viewBox="0 0 188 146" fill="none" xmlns="http://www.w3.org/2000/svg">
<path d="M0 10C0 4.47715 4.47715 0 10 0H178C183.523 0 188 4.47715 188 10V146H0V10Z" fill="white"/>
<rect x="16" y="61" width="156" height="16" rx="2" fill="#F4F6F6"/>
<rect x="16" y="89" width="156" height="16" rx="2" fill="#F4F6F6"/>
<rect x="16" y="117" width="156" height="16" rx="2" fill="#F4F6F6"/>
<g clip-path="url(#clip0_557_85602)">
<mask id="mask0_557_85602" style="mask-type:alpha" maskUnits="userSpaceOnUse" x="16" y="14" width="23" height="31">
<path d="M30.2772 14.4434H18.4741C17.3285 14.4434 16.3911 15.3673 16.3911 16.4965V42.5034C16.3911 43.6326 17.3285 44.5565 18.4741 44.5565H36.5259C37.6715 44.5565 38.6088 43.6326 38.6088 42.5034V22.656L30.2772 14.4434Z" fill="white"/>
</mask>
<g mask="url(#mask0_557_85602)">
<path d="M30.2772 14.4434H18.4741C17.3285 14.4434 16.3911 15.3673 16.3911 16.4965V42.5034C16.3911 43.6326 17.3285 44.5565 18.4741 44.5565H36.5259C37.6715 44.5565 38.6088 43.6326 38.6088 42.5034V22.656L33.7487 19.2341L30.2772 14.4434Z" fill="#0F9D58"/>
</g>
<mask id="mask1_557_85602" style="mask-type:alpha" maskUnits="userSpaceOnUse" x="16" y="14" width="23" height="31">
<path d="M30.2772 14.4434H18.4741C17.3285 14.4434 16.3911 15.3673 16.3911 16.4965V42.5034C16.3911 43.6326 17.3285 44.5565 18.4741 44.5565H36.5259C37.6715 44.5565 38.6088 43.6326 38.6088 42.5034V22.656L30.2772 14.4434Z" fill="white"/>
</mask>
<g mask="url(#mask1_557_85602)">
<path d="M21.9456 29.1577V39.0814H33.0544V29.1577H21.9456ZM26.8057 37.7126H23.3342V36.0016H26.8057V37.7126ZM26.8057 34.975H23.3342V33.2641H26.8057V34.975ZM26.8057 32.2375H23.3342V30.5265H26.8057V32.2375ZM31.6658 37.7126H28.1943V36.0016H31.6658V37.7126ZM31.6658 34.975H28.1943V33.2641H31.6658V34.975ZM31.6658 32.2375H28.1943V30.5265H31.6658V32.2375Z" fill="#F1F1F1"/>
</g>
<mask id="mask2_557_85602" style="mask-type:alpha" maskUnits="userSpaceOnUse" x="16" y="14" width="23" height="31">
<path d="M30.2772 14.4434H18.4741C17.3285 14.4434 16.3911 15.3673 16.3911 16.4965V42.5034C16.3911 43.6326 17.3285 44.5565 18.4741 44.5565H36.5259C37.6715 44.5565 38.6088 43.6326 38.6088 42.5034V22.656L30.2772 14.4434Z" fill="white"/>
</mask>
<g mask="url(#mask2_557_85602)">
<path d="M30.8865 22.0557L38.6088 29.6661V22.6562L30.8865 22.0557Z" fill="url(#paint0_linear_557_85602)"/>
</g>
<mask id="mask3_557_85602" style="mask-type:alpha" maskUnits="userSpaceOnUse" x="16" y="14" width="23" height="31">
<path d="M30.2772 14.4434H18.4741C17.3285 14.4434 16.3911 15.3673 16.3911 16.4965V42.5034C16.3911 43.6326 17.3285 44.5565 18.4741 44.5565H36.5259C37.6715 44.5565 38.6088 43.6326 38.6088 42.5034V22.656L30.2772 14.4434Z" fill="white"/>
</mask>
<g mask="url(#mask3_557_85602)">
<path d="M30.2772 14.4434V20.6029C30.2772 21.7373 31.2093 22.656 32.3601 22.656H38.6088L30.2772 14.4434Z" fill="#87CEAC"/>
</g>
<mask id="mask4_557_85602" style="mask-type:alpha" maskUnits="userSpaceOnUse" x="16" y="14" width="23" height="31">
<path d="M30.2772 14.4434H18.4741C17.3285 14.4434 16.3911 15.3673 16.3911 16.4965V42.5034C16.3911 43.6326 17.3285 44.5565 18.4741 44.5565H36.5259C37.6715 44.5565 38.6088 43.6326 38.6088 42.5034V22.656L30.2772 14.4434Z" fill="white"/>
</mask>
<g mask="url(#mask4_557_85602)">
<path d="M18.4741 14.4434C17.3285 14.4434 16.3911 15.3673 16.3911 16.4965V16.6676C16.3911 15.5384 17.3285 14.6145 18.4741 14.6145H30.2772V14.4434H18.4741Z" fill="white" fill-opacity="0.2"/>
</g>
<mask id="mask5_557_85602" style="mask-type:alpha" maskUnits="userSpaceOnUse" x="16" y="14" width="23" height="31">
<path d="M30.2772 14.4434H18.4741C17.3285 14.4434 16.3911 15.3673 16.3911 16.4965V42.5034C16.3911 43.6326 17.3285 44.5565 18.4741 44.5565H36.5259C37.6715 44.5565 38.6088 43.6326 38.6088 42.5034V22.656L30.2772 14.4434Z" fill="white"/>
</mask>
<g mask="url(#mask5_557_85602)">
<path d="M36.5259 44.3854H18.4741C17.3285 44.3854 16.3911 43.4615 16.3911 42.3323V42.5034C16.3911 43.6326 17.3285 44.5565 18.4741 44.5565H36.5259C37.6715 44.5565 38.6088 43.6326 38.6088 42.5034V42.3323C38.6088 43.4615 37.6715 44.3854 36.5259 44.3854Z" fill="#263238" fill-opacity="0.2"/>
</g>
<mask id="mask6_557_85602" style="mask-type:alpha" maskUnits="userSpaceOnUse" x="16" y="14" width="23" height="31">
<path d="M30.2772 14.4434H18.4741C17.3285 14.4434 16.3911 15.3673 16.3911 16.4965V42.5034C16.3911 43.6326 17.3285 44.5565 18.4741 44.5565H36.5259C37.6715 44.5565 38.6088 43.6326 38.6088 42.5034V22.656L30.2772 14.4434Z" fill="white"/>
</mask>
<g mask="url(#mask6_557_85602)">
<path d="M32.3601 22.656C31.2093 22.656 30.2772 21.7372 30.2772 20.6028V20.7739C30.2772 21.9083 31.2093 22.8271 32.3601 22.8271H38.6088V22.656H32.3601Z" fill="#263238" fill-opacity="0.1"/>
</g>
<path d="M30.2772 14.4434H18.4741C17.3285 14.4434 16.3911 15.3673 16.3911 16.4965V42.5034C16.3911 43.6326 17.3285 44.5565 18.4741 44.5565H36.5259C37.6715 44.5565 38.6088 43.6326 38.6088 42.5034V22.656L30.2772 14.4434Z" fill="url(#paint1_radial_557_85602)"/>
</g>
<defs>
<linearGradient id="paint0_linear_557_85602" x1="34.7481" y1="22.7091" x2="34.7481" y2="29.6671" gradientUnits="userSpaceOnUse">
<stop stop-color="#263238" stop-opacity="0.2"/>
<stop offset="1" stop-color="#263238" stop-opacity="0.02"/>
</linearGradient>
<radialGradient id="paint1_radial_557_85602" cx="0" cy="0" r="1" gradientUnits="userSpaceOnUse" gradientTransform="translate(17.095 15.0419) scale(35.8257 35.3142)">
<stop stop-color="white" stop-opacity="0.1"/>
<stop offset="1" stop-color="white" stop-opacity="0"/>
</radialGradient>
<clipPath id="clip0_557_85602">
<rect width="23" height="31" fill="white" transform="translate(16 14)"/>
</clipPath>
</defs>
</svg>
