<svg width="44" height="44" viewBox="0 0 44 44" fill="none" xmlns="http://www.w3.org/2000/svg">
<rect width="44" height="44" rx="22" fill="#3DBC4A" fill-opacity="0.1"/>
<path fill-rule="evenodd" clip-rule="evenodd" d="M22.8655 14.5247C22.3184 14.262 21.6816 14.262 21.1345 14.5247L13.8942 18L13.0288 16.1969L20.2691 12.7216C21.3633 12.1964 22.6367 12.1964 23.7309 12.7216L30.9712 16.1969C32.8897 17.1178 32.2338 20 30.1058 20H13.8942C11.7662 20 11.1104 17.1178 13.0288 16.1969L13.8942 18L30.1058 18L22.8655 14.5247Z" fill="#3DBC4A"/>
<path fill-rule="evenodd" clip-rule="evenodd" d="M22 21C22.5523 21 23 21.4477 23 22V28C23 28.5523 22.5523 29 22 29C21.4477 29 21 28.5523 21 28V22C21 21.4477 21.4477 21 22 21Z" fill="#3DBC4A"/>
<path fill-rule="evenodd" clip-rule="evenodd" d="M15 21C15.5523 21 16 21.4477 16 22V28C16 28.5523 15.5523 29 15 29C14.4477 29 14 28.5523 14 28V22C14 21.4477 14.4477 21 15 21Z" fill="#3DBC4A"/>
<path fill-rule="evenodd" clip-rule="evenodd" d="M29 21C29.5523 21 30 21.4477 30 22V28C30 28.5523 29.5523 29 29 29C28.4477 29 28 28.5523 28 28V22C28 21.4477 28.4477 21 29 21Z" fill="#3DBC4A"/>
<path fill-rule="evenodd" clip-rule="evenodd" d="M12 31C12 30.4477 12.4477 30 13 30H31C31.5523 30 32 30.4477 32 31C32 31.5523 31.5523 32 31 32H13C12.4477 32 12 31.5523 12 31Z" fill="#3DBC4A"/>
</svg>
