<svg width="82" height="82" viewBox="0 0 82 82" fill="none" xmlns="http://www.w3.org/2000/svg">
<rect width="82" height="82" rx="41" fill="#FDEBEB"/>
<path fill-rule="evenodd" clip-rule="evenodd" d="M33.9165 33.9166V35.3333C31.5693 35.3333 29.6665 37.236 29.6665 39.5833V50.9166C29.6665 53.2638 31.5693 55.1666 33.9165 55.1666H48.0832C50.4304 55.1666 52.3332 53.2638 52.3332 50.9166V39.5833C52.3332 37.236 50.4304 35.3333 48.0832 35.3333V33.9166C48.0832 30.0046 44.9119 26.8333 40.9998 26.8333C37.0878 26.8333 33.9165 30.0046 33.9165 33.9166ZM40.9998 29.6666C38.6526 29.6666 36.7498 31.5694 36.7498 33.9166V35.3333H45.2498V33.9166C45.2498 31.5694 43.347 29.6666 40.9998 29.6666ZM43.8332 43.8333C43.8332 44.882 43.2634 45.7976 42.4165 46.2875V48.0833C42.4165 48.8657 41.7822 49.4999 40.9998 49.4999C40.2174 49.4999 39.5832 48.8657 39.5832 48.0833V46.2875C38.7363 45.7976 38.1665 44.882 38.1665 43.8333C38.1665 42.2684 39.435 40.9999 40.9998 40.9999C42.5646 40.9999 43.8332 42.2684 43.8332 43.8333Z" fill="#E93C3C"/>
</svg>
