<svg width="24" height="28" viewBox="0 0 24 28" fill="none" xmlns="http://www.w3.org/2000/svg">
<path fill-rule="evenodd" clip-rule="evenodd" d="M4.91643 9.15119C5.97872 5.96463 9.43012 2.37986 11.0908 0.785401C11.6028 0.293863 12.3969 0.293864 12.9088 0.785403C14.5695 2.37986 18.0209 5.96462 19.0831 9.15119C19.6252 10.7775 19.572 13.123 19.2594 15.5298C21.5249 15.6222 23.3332 17.488 23.3332 19.7762V25.6291C23.3332 26.7606 22.0721 27.4355 21.1307 26.8079L16.9942 24.0502C16.2353 24.9218 15.1055 25.4429 13.8835 25.4429H10.1046C8.8851 25.4429 7.75702 24.9238 6.99885 24.0546L2.869 26.8079C1.92754 27.4355 0.666504 26.7606 0.666504 25.6291V19.7762C0.666504 17.4927 2.46743 15.6298 4.72643 15.5304C4.41722 13.1336 4.36912 10.7929 4.91643 9.15119ZM11.9998 14.1095C13.5646 14.1095 14.8332 12.841 14.8332 11.2762C14.8332 9.71137 13.5646 8.44285 11.9998 8.44285C10.435 8.44285 9.1665 9.71137 9.1665 11.2762C9.1665 12.841 10.435 14.1095 11.9998 14.1095Z" fill="#3DBC4A"/>
</svg>
