<svg width="44" height="44" viewBox="0 0 44 44" fill="none" xmlns="http://www.w3.org/2000/svg">
<rect width="44" height="44" rx="22" fill="#1A80F8" fill-opacity="0.1"/>
<path fill-rule="evenodd" clip-rule="evenodd" d="M21.6071 14L20.6737 16H23.3263L22.3929 14H21.6071ZM19.4 14L18.4667 16H14.8284L16.5355 14.2929C16.7231 14.1054 16.9774 14 17.2426 14H19.4ZM12.0147 16.8285C12.0784 16.2217 12.3482 15.6518 12.7836 15.2164L15.1213 12.8787C15.6839 12.3161 16.447 12 17.2426 12H26.7574C27.553 12 28.3161 12.3161 28.8787 12.8787L31.2164 15.2164C31.6518 15.6518 31.9216 16.2217 31.9853 16.8285C31.995 16.8842 32 16.9415 32 17V29C32 30.6569 30.6569 32 29 32H15C13.3431 32 12 30.6569 12 29V17C12 16.9415 12.005 16.8842 12.0147 16.8285ZM14 18V29C14 29.5523 14.4477 30 15 30H29C29.5523 30 30 29.5523 30 29V18H26V21C26 22.6569 24.6569 24 23 24H21C19.3431 24 18 22.6569 18 21V18H14ZM20 18V21C20 21.5523 20.4477 22 21 22H23C23.5523 22 24 21.5523 24 21V18H20ZM29.1716 16L27.4645 14.2929C27.2769 14.1054 27.0226 14 26.7574 14H24.6L25.5333 16H29.1716Z" fill="#1A80F8"/>
</svg>
