<svg width="44" height="44" viewBox="0 0 44 44" fill="none" xmlns="http://www.w3.org/2000/svg">
<rect width="44" height="44" rx="22" fill="#E93C3C" fill-opacity="0.1"/>
<path fill-rule="evenodd" clip-rule="evenodd" d="M14.6863 22.2678L22.1959 14.7581C22.4023 14.5517 22.6886 14.4458 22.9797 14.4682L28.2325 14.8723C28.7243 14.9101 29.115 15.3008 29.1529 15.7926L29.5569 21.0454C29.5793 21.3365 29.4734 21.6228 29.267 21.8292L21.7574 29.3388C21.3668 29.7293 20.7337 29.7293 20.3431 29.3388L14.6863 23.682C14.2958 23.2914 14.2958 22.6583 14.6863 22.2678ZM31.551 20.892C31.6182 21.7652 31.3005 22.6242 30.6812 23.2434L23.1716 30.753C22 31.9246 20.1005 31.9246 18.9289 30.753L13.2721 25.0962C12.1005 23.9246 12.1005 22.0251 13.2721 20.8535L20.7817 13.3439C21.401 12.7247 22.2599 12.4069 23.1331 12.4741L28.3859 12.8781C29.8612 12.9916 31.0335 14.1639 31.147 15.6392L31.551 20.892Z" fill="#E93C3C"/>
<path d="M24.5858 17.318C24 17.9038 24 18.8535 24.5858 19.4393C25.1715 20.0251 26.1213 20.0251 26.7071 19.4393C27.2929 18.8535 27.2929 17.9038 26.7071 17.318C26.1213 16.7322 25.1715 16.7322 24.5858 17.318Z" fill="#E93C3C"/>
<path fill-rule="evenodd" clip-rule="evenodd" d="M17.5147 23.682L20.3431 26.5104C20.7336 26.9009 21.3668 26.9009 21.7573 26.5104C22.1479 26.1199 22.1479 25.4867 21.7573 25.0962L18.9289 22.2677C18.5384 21.8772 17.9052 21.8772 17.5147 22.2677C17.1242 22.6583 17.1242 23.2914 17.5147 23.682Z" fill="#E93C3C"/>
</svg>
