<svg width="44" height="44" viewBox="0 0 44 44" fill="none" xmlns="http://www.w3.org/2000/svg">
<rect width="44" height="44" rx="22" fill="#F8DB46" fill-opacity="0.1"/>
<path fill-rule="evenodd" clip-rule="evenodd" d="M13 12C13.5523 12 14 12.4477 14 13V29C14 29.5523 14.4477 30 15 30H31C31.5523 30 32 30.4477 32 31C32 31.5523 31.5523 32 31 32H15C13.3431 32 12 30.6569 12 29V13C12 12.4477 12.4477 12 13 12Z" fill="#F8DB46"/>
<path fill-rule="evenodd" clip-rule="evenodd" d="M31.7071 18.2929C32.0976 18.6834 32.0976 19.3166 31.7071 19.7071L27.1213 24.2929C25.9497 25.4645 24.0503 25.4645 22.8787 24.2929L20.7071 22.1213C20.3166 21.7308 19.6834 21.7308 19.2929 22.1213L17.2071 24.2071C16.8166 24.5976 16.1834 24.5976 15.7929 24.2071C15.4024 23.8166 15.4024 23.1834 15.7929 22.7929L17.8787 20.7071C19.0503 19.5355 20.9497 19.5355 22.1213 20.7071L24.2929 22.8787C24.6834 23.2692 25.3166 23.2692 25.7071 22.8787L30.2929 18.2929C30.6834 17.9024 31.3166 17.9024 31.7071 18.2929Z" fill="#F8DB46"/>
</svg>
